<svg width="402" height="600" viewBox="0 0 402 600" fill="none" xmlns="http://www.w3.org/2000/svg">
<g clip-path="url(#clip0_5_312)">
<rect width="402" height="600" fill="white"/>
<rect width="80" height="600" fill="#383E4C"/>
<rect x="8" y="16" width="32" height="16" rx="4" fill="#E23540"/>
<rect x="8" y="48" width="64" height="10" rx="2" fill="white"/>
<rect opacity="0.4" x="8" y="70" width="64" height="10" rx="2" fill="white"/>
<rect opacity="0.4" x="8" y="92" width="64" height="10" rx="2" fill="white"/>
<rect opacity="0.4" x="8" y="114" width="64" height="10" rx="2" fill="white"/>
<path d="M101.25 30.224C100.345 30.224 99.5373 30.0187 98.828 29.608C98.128 29.1973 97.5773 28.6047 97.176 27.83C96.784 27.0553 96.588 26.1267 96.588 25.044C96.588 23.9893 96.7793 23.0747 97.162 22.3C97.5447 21.516 98.0907 20.9093 98.8 20.48C99.5093 20.0507 100.34 19.836 101.292 19.836C102.589 19.836 103.597 20.158 104.316 20.802C105.044 21.4367 105.511 22.3467 105.716 23.532L103.504 23.616C103.392 22.9907 103.149 22.5053 102.776 22.16C102.403 21.8053 101.908 21.628 101.292 21.628C100.76 21.628 100.307 21.768 99.934 22.048C99.5607 22.328 99.276 22.7247 99.08 23.238C98.884 23.7513 98.786 24.3533 98.786 25.044C98.786 25.744 98.884 26.3507 99.08 26.864C99.2853 27.368 99.5747 27.7553 99.948 28.026C100.321 28.2967 100.765 28.432 101.278 28.432C101.95 28.432 102.468 28.2453 102.832 27.872C103.205 27.4893 103.439 26.962 103.532 26.29L105.758 26.374C105.627 27.186 105.371 27.8767 104.988 28.446C104.605 29.0153 104.101 29.454 103.476 29.762C102.86 30.07 102.118 30.224 101.25 30.224ZM110.484 30.168C109.719 30.168 109.052 30.0093 108.482 29.692C107.913 29.3653 107.47 28.908 107.152 28.32C106.835 27.732 106.676 27.0413 106.676 26.248C106.676 25.4547 106.835 24.7687 107.152 24.19C107.47 23.602 107.913 23.1447 108.482 22.818C109.052 22.4913 109.719 22.328 110.484 22.328C111.25 22.328 111.917 22.4913 112.486 22.818C113.056 23.1447 113.499 23.602 113.816 24.19C114.134 24.7687 114.292 25.4547 114.292 26.248C114.292 27.0413 114.134 27.732 113.816 28.32C113.499 28.908 113.056 29.3653 112.486 29.692C111.917 30.0093 111.25 30.168 110.484 30.168ZM110.484 28.558C111.007 28.558 111.413 28.3573 111.702 27.956C111.992 27.5453 112.136 26.976 112.136 26.248C112.136 25.52 111.992 24.9553 111.702 24.554C111.413 24.1433 111.007 23.938 110.484 23.938C109.962 23.938 109.556 24.1433 109.266 24.554C108.977 24.9553 108.832 25.52 108.832 26.248C108.832 26.976 108.977 27.5453 109.266 27.956C109.556 28.3573 109.962 28.558 110.484 28.558ZM115.6 30V22.496H117.49L117.574 24.694L117.308 24.624C117.382 24.064 117.532 23.616 117.756 23.28C117.989 22.944 118.278 22.7013 118.624 22.552C118.969 22.4027 119.347 22.328 119.758 22.328C120.299 22.328 120.756 22.4447 121.13 22.678C121.512 22.9113 121.802 23.2427 121.998 23.672C122.203 24.092 122.306 24.5913 122.306 25.17V30H120.206V25.87C120.206 25.4687 120.173 25.128 120.108 24.848C120.042 24.568 119.926 24.358 119.758 24.218C119.59 24.0687 119.356 23.994 119.058 23.994C118.619 23.994 118.283 24.1573 118.05 24.484C117.816 24.8013 117.7 25.2633 117.7 25.87V30H115.6ZM127.187 30.168C126.412 30.168 125.763 30.0607 125.241 29.846C124.718 29.622 124.317 29.3233 124.037 28.95C123.766 28.5673 123.612 28.1287 123.575 27.634L125.703 27.564C125.768 27.9187 125.917 28.194 126.151 28.39C126.384 28.586 126.729 28.684 127.187 28.684C127.56 28.684 127.849 28.6233 128.055 28.502C128.269 28.3807 128.377 28.194 128.377 27.942C128.377 27.7833 128.339 27.6527 128.265 27.55C128.19 27.438 128.041 27.3447 127.817 27.27C127.602 27.186 127.28 27.1113 126.851 27.046C126.057 26.906 125.437 26.7427 124.989 26.556C124.541 26.3693 124.223 26.1267 124.037 25.828C123.85 25.5293 123.757 25.1653 123.757 24.736C123.757 24.0173 124.032 23.4387 124.583 23C125.143 22.552 125.978 22.328 127.089 22.328C127.798 22.328 128.391 22.44 128.867 22.664C129.352 22.888 129.725 23.196 129.987 23.588C130.257 23.9707 130.425 24.4093 130.491 24.904L128.377 24.988C128.349 24.7453 128.274 24.54 128.153 24.372C128.041 24.1947 127.896 24.0593 127.719 23.966C127.541 23.8633 127.327 23.812 127.075 23.812C126.701 23.812 126.412 23.8913 126.207 24.05C126.011 24.1993 125.913 24.4 125.913 24.652C125.913 24.8387 125.955 24.9927 126.039 25.114C126.132 25.226 126.281 25.3193 126.487 25.394C126.692 25.4687 126.967 25.5293 127.313 25.576C128.115 25.688 128.75 25.8467 129.217 26.052C129.693 26.248 130.033 26.4953 130.239 26.794C130.444 27.0927 130.547 27.4613 130.547 27.9C130.547 28.3853 130.407 28.796 130.127 29.132C129.847 29.468 129.455 29.7247 128.951 29.902C128.456 30.0793 127.868 30.168 127.187 30.168ZM135.244 30.168C134.479 30.168 133.811 30.0093 133.242 29.692C132.673 29.3653 132.229 28.908 131.912 28.32C131.595 27.732 131.436 27.0413 131.436 26.248C131.436 25.4547 131.595 24.7687 131.912 24.19C132.229 23.602 132.673 23.1447 133.242 22.818C133.811 22.4913 134.479 22.328 135.244 22.328C136.009 22.328 136.677 22.4913 137.246 22.818C137.815 23.1447 138.259 23.602 138.576 24.19C138.893 24.7687 139.052 25.4547 139.052 26.248C139.052 27.0413 138.893 27.732 138.576 28.32C138.259 28.908 137.815 29.3653 137.246 29.692C136.677 30.0093 136.009 30.168 135.244 30.168ZM135.244 28.558C135.767 28.558 136.173 28.3573 136.462 27.956C136.751 27.5453 136.896 26.976 136.896 26.248C136.896 25.52 136.751 24.9553 136.462 24.554C136.173 24.1433 135.767 23.938 135.244 23.938C134.721 23.938 134.315 24.1433 134.026 24.554C133.737 24.9553 133.592 25.52 133.592 26.248C133.592 26.976 133.737 27.5453 134.026 27.956C134.315 28.3573 134.721 28.558 135.244 28.558ZM142.388 30C141.772 30 141.291 29.846 140.946 29.538C140.601 29.23 140.428 28.7307 140.428 28.04V20.06H142.528V27.816C142.528 28.04 142.579 28.1987 142.682 28.292C142.785 28.3853 142.934 28.432 143.13 28.432H143.634V30H142.388ZM148.054 30.168C147.289 30.168 146.621 30.0093 146.052 29.692C145.492 29.3653 145.053 28.908 144.736 28.32C144.428 27.732 144.274 27.0413 144.274 26.248C144.274 25.4547 144.428 24.7687 144.736 24.19C145.053 23.602 145.492 23.1447 146.052 22.818C146.612 22.4913 147.275 22.328 148.04 22.328C148.787 22.328 149.435 22.4913 149.986 22.818C150.537 23.1447 150.961 23.6113 151.26 24.218C151.568 24.8247 151.722 25.548 151.722 26.388V26.808H146.444C146.472 27.4053 146.631 27.8487 146.92 28.138C147.219 28.4273 147.611 28.572 148.096 28.572C148.451 28.572 148.745 28.4973 148.978 28.348C149.221 28.1987 149.393 27.97 149.496 27.662L151.61 27.788C151.414 28.5347 150.999 29.118 150.364 29.538C149.729 29.958 148.959 30.168 148.054 30.168ZM146.444 25.52H149.566C149.538 24.9693 149.384 24.5587 149.104 24.288C148.833 24.0173 148.479 23.882 148.04 23.882C147.601 23.882 147.237 24.0267 146.948 24.316C146.668 24.596 146.5 24.9973 146.444 25.52Z" fill="#383E4C"/>
<rect x="354" y="19" width="32" height="12" rx="2" fill="#E1E3E8"/>
<rect x="96.5" y="50.5" width="65.5" height="39" rx="3.5" fill="white"/>
<rect x="96.5" y="50.5" width="65.5" height="39" rx="3.5" stroke="#E1E3E8"/>
<rect opacity="0.6" x="104" y="58" width="20" height="4" rx="1" fill="#5A606D"/>
<path d="M106.304 78V72.396H104.456V71.064H105.188C105.54 71.064 105.824 71.016 106.04 70.92C106.264 70.816 106.424 70.652 106.52 70.428C106.624 70.196 106.676 69.88 106.676 69.48H108.128V78H106.304ZM109.969 78C109.969 77.272 110.065 76.64 110.257 76.104C110.457 75.568 110.777 75.088 111.217 74.664C111.665 74.24 112.257 73.836 112.993 73.452C113.385 73.252 113.693 73.076 113.917 72.924C114.149 72.764 114.313 72.604 114.409 72.444C114.505 72.284 114.553 72.096 114.553 71.88C114.553 71.672 114.505 71.492 114.409 71.34C114.321 71.18 114.189 71.056 114.013 70.968C113.837 70.872 113.617 70.824 113.353 70.824C112.921 70.824 112.577 70.952 112.321 71.208C112.073 71.456 111.917 71.82 111.853 72.3L109.981 72.192C110.061 71.288 110.389 70.58 110.965 70.068C111.549 69.548 112.337 69.288 113.329 69.288C113.985 69.288 114.541 69.396 114.997 69.612C115.461 69.828 115.813 70.128 116.053 70.512C116.301 70.896 116.425 71.344 116.425 71.856C116.425 72.304 116.349 72.68 116.197 72.984C116.053 73.288 115.817 73.568 115.489 73.824C115.161 74.08 114.729 74.352 114.193 74.64C113.505 75.008 112.997 75.348 112.669 75.66C112.341 75.964 112.165 76.232 112.141 76.464H116.425V78H109.969Z" fill="#383E4C"/>
<rect x="171" y="50.5" width="65.5" height="39" rx="3.5" fill="white"/>
<rect x="171" y="50.5" width="65.5" height="39" rx="3.5" stroke="#E1E3E8"/>
<rect opacity="0.6" x="178.5" y="58" width="20" height="4" rx="1" fill="#5A606D"/>
<path d="M179.196 78C179.196 77.272 179.292 76.64 179.484 76.104C179.684 75.568 180.004 75.088 180.444 74.664C180.892 74.24 181.484 73.836 182.22 73.452C182.612 73.252 182.92 73.076 183.144 72.924C183.376 72.764 183.54 72.604 183.636 72.444C183.732 72.284 183.78 72.096 183.78 71.88C183.78 71.672 183.732 71.492 183.636 71.34C183.548 71.18 183.416 71.056 183.24 70.968C183.064 70.872 182.844 70.824 182.58 70.824C182.148 70.824 181.804 70.952 181.548 71.208C181.3 71.456 181.144 71.82 181.08 72.3L179.208 72.192C179.288 71.288 179.616 70.58 180.192 70.068C180.776 69.548 181.564 69.288 182.556 69.288C183.212 69.288 183.768 69.396 184.224 69.612C184.688 69.828 185.04 70.128 185.28 70.512C185.528 70.896 185.652 71.344 185.652 71.856C185.652 72.304 185.576 72.68 185.424 72.984C185.28 73.288 185.044 73.568 184.716 73.824C184.388 74.08 183.956 74.352 183.42 74.64C182.732 75.008 182.224 75.348 181.896 75.66C181.568 75.964 181.392 76.232 181.368 76.464H185.652V78H179.196ZM190.594 78V76.38H186.358V74.928L190.246 69.48H192.418V74.844H193.414V76.38H192.418V78H190.594ZM188.29 74.844H190.594V71.724L188.29 74.844Z" fill="#383E4C"/>
<rect x="245.5" y="50.5" width="65.5" height="39" rx="3.5" fill="white"/>
<rect x="245.5" y="50.5" width="65.5" height="39" rx="3.5" stroke="#E1E3E8"/>
<rect opacity="0.6" x="253" y="58" width="20" height="4" rx="1" fill="#5A606D"/>
<path d="M256.888 78.192C255.832 78.192 255.016 77.952 254.44 77.472C253.872 76.984 253.568 76.328 253.528 75.504L255.388 75.432C255.428 75.856 255.576 76.168 255.832 76.368C256.096 76.56 256.448 76.656 256.888 76.656C257.176 76.656 257.432 76.616 257.656 76.536C257.88 76.448 258.056 76.316 258.184 76.14C258.32 75.964 258.388 75.744 258.388 75.48C258.388 75.072 258.248 74.768 257.968 74.568C257.688 74.36 257.308 74.256 256.828 74.256H256.072V72.9H256.828C257.196 72.9 257.5 72.824 257.74 72.672C257.988 72.512 258.112 72.244 258.112 71.868C258.112 71.548 258.012 71.296 257.812 71.112C257.612 70.92 257.296 70.824 256.864 70.824C256.432 70.824 256.108 70.912 255.892 71.088C255.676 71.264 255.544 71.492 255.496 71.772L253.66 71.676C253.74 70.956 254.056 70.38 254.608 69.948C255.168 69.508 255.92 69.288 256.864 69.288C257.536 69.288 258.104 69.384 258.568 69.576C259.032 69.768 259.384 70.044 259.624 70.404C259.864 70.764 259.984 71.188 259.984 71.676C259.984 72.18 259.816 72.596 259.48 72.924C259.152 73.252 258.676 73.476 258.052 73.596V73.392C258.764 73.496 259.312 73.74 259.696 74.124C260.08 74.508 260.272 75.004 260.272 75.612C260.272 76.148 260.132 76.612 259.852 77.004C259.572 77.388 259.18 77.684 258.676 77.892C258.172 78.092 257.576 78.192 256.888 78.192ZM264.789 78.192C264.061 78.192 263.449 78.036 262.953 77.724C262.465 77.412 262.097 76.964 261.849 76.38C261.601 75.788 261.477 75.076 261.477 74.244C261.477 73.532 261.549 72.876 261.693 72.276C261.837 71.668 262.053 71.144 262.341 70.704C262.637 70.256 263.013 69.908 263.469 69.66C263.925 69.412 264.461 69.288 265.077 69.288C265.909 69.288 266.565 69.488 267.045 69.888C267.533 70.288 267.857 70.832 268.017 71.52L266.325 71.64C266.229 71.376 266.089 71.168 265.905 71.016C265.721 70.864 265.445 70.788 265.077 70.788C264.517 70.788 264.077 71.032 263.757 71.52C263.437 72.008 263.257 72.76 263.217 73.776L262.965 73.728C263.053 73.496 263.193 73.28 263.385 73.08C263.577 72.88 263.821 72.72 264.117 72.6C264.421 72.472 264.773 72.408 265.173 72.408C265.749 72.408 266.253 72.524 266.685 72.756C267.125 72.988 267.461 73.312 267.693 73.728C267.933 74.144 268.053 74.632 268.053 75.192C268.053 75.832 267.917 76.376 267.645 76.824C267.373 77.264 266.993 77.604 266.505 77.844C266.017 78.076 265.445 78.192 264.789 78.192ZM264.777 76.74C265.217 76.74 265.569 76.604 265.833 76.332C266.105 76.052 266.241 75.68 266.241 75.216C266.241 74.912 266.181 74.648 266.061 74.424C265.949 74.2 265.785 74.024 265.569 73.896C265.361 73.768 265.117 73.704 264.837 73.704C264.541 73.704 264.277 73.768 264.045 73.896C263.813 74.024 263.633 74.2 263.505 74.424C263.377 74.648 263.313 74.912 263.313 75.216C263.313 75.512 263.373 75.776 263.493 76.008C263.613 76.24 263.781 76.42 263.997 76.548C264.221 76.676 264.481 76.74 264.777 76.74Z" fill="#383E4C"/>
<rect x="320" y="50.5" width="65.5" height="39" rx="3.5" fill="white"/>
<rect x="320" y="50.5" width="65.5" height="39" rx="3.5" stroke="#E1E3E8"/>
<rect opacity="0.6" x="327.5" y="58" width="20" height="4" rx="1" fill="#5A606D"/>
<path d="M332.024 78V76.38H327.788V74.928L331.676 69.48H333.848V74.844H334.844V76.38H333.848V78H332.024ZM329.72 74.844H332.024V71.724L329.72 74.844ZM339.383 78.192C338.655 78.192 338.023 78.1 337.487 77.916C336.951 77.724 336.535 77.44 336.239 77.064C335.951 76.688 335.807 76.228 335.807 75.684C335.807 75.044 336.007 74.52 336.407 74.112C336.807 73.696 337.339 73.432 338.003 73.32L338.027 73.56C337.475 73.456 337.035 73.236 336.707 72.9C336.379 72.564 336.215 72.14 336.215 71.628C336.215 71.164 336.339 70.756 336.587 70.404C336.835 70.052 337.191 69.78 337.655 69.588C338.127 69.388 338.703 69.288 339.383 69.288C340.055 69.288 340.627 69.388 341.099 69.588C341.571 69.78 341.927 70.052 342.167 70.404C342.415 70.756 342.539 71.164 342.539 71.628C342.539 72.14 342.375 72.564 342.047 72.9C341.727 73.228 341.287 73.448 340.727 73.56L340.751 73.32C341.423 73.44 341.959 73.704 342.359 74.112C342.759 74.52 342.959 75.044 342.959 75.684C342.959 76.228 342.811 76.688 342.515 77.064C342.227 77.44 341.815 77.724 341.279 77.916C340.743 78.1 340.111 78.192 339.383 78.192ZM339.383 76.656C339.895 76.656 340.303 76.548 340.607 76.332C340.919 76.108 341.075 75.8 341.075 75.408C341.075 75.016 340.927 74.704 340.631 74.472C340.343 74.232 339.927 74.112 339.383 74.112C338.839 74.112 338.419 74.232 338.123 74.472C337.827 74.704 337.679 75.016 337.679 75.408C337.679 75.8 337.835 76.108 338.147 76.332C338.459 76.548 338.871 76.656 339.383 76.656ZM339.383 72.828C339.791 72.828 340.107 72.748 340.331 72.588C340.563 72.42 340.679 72.164 340.679 71.82C340.679 71.516 340.567 71.272 340.343 71.088C340.127 70.904 339.807 70.812 339.383 70.812C338.959 70.812 338.635 70.904 338.411 71.088C338.187 71.272 338.075 71.516 338.075 71.82C338.075 72.164 338.191 72.42 338.423 72.588C338.655 72.748 338.975 72.828 339.383 72.828Z" fill="#383E4C"/>
<rect x="96.5" y="106.5" width="289" height="477" rx="5.5" fill="white"/>
<rect x="96.5" y="106.5" width="289" height="477" rx="5.5" stroke="#E1E3E8"/>
<rect x="108" y="118" width="48" height="8" rx="2" fill="#383E4C"/>
<rect x="108" y="134" width="266" height="438" rx="4" fill="#E1E3E8"/>
</g>
<defs>
<clipPath id="clip0_5_312">
<rect width="402" height="600" fill="white"/>
</clipPath>
</defs>
</svg>
